<svg width="113" height="17" viewBox="0 0 113 17" fill="none" xmlns="http://www.w3.org/2000/svg">
<path d="M0.558 13L5.67 0.508H6.894L11.988 13H10.152L5.958 2.434H6.588L2.358 13H0.558ZM2.988 10.174V8.698H9.558V10.174H2.988ZM18.2212 13.18C17.5732 13.18 16.9852 13.048 16.4572 12.784C15.9412 12.508 15.5272 12.13 15.2152 11.65C14.9032 11.17 14.7292 10.624 14.6932 10.012V7.438C14.7292 6.814 14.9032 6.268 15.2152 5.8C15.5392 5.32 15.9592 4.948 16.4752 4.684C17.0032 4.408 17.5852 4.27 18.2212 4.27C19.0012 4.27 19.7032 4.468 20.3272 4.864C20.9632 5.26 21.4612 5.794 21.8212 6.466C22.1812 7.138 22.3612 7.894 22.3612 8.734C22.3612 9.574 22.1812 10.33 21.8212 11.002C21.4612 11.674 20.9632 12.208 20.3272 12.604C19.7032 12.988 19.0012 13.18 18.2212 13.18ZM13.7212 16.582V4.45H15.3412V6.7L15.0352 8.77L15.3412 10.858V16.582H13.7212ZM17.9512 11.65C18.4912 11.65 18.9652 11.524 19.3732 11.272C19.7812 11.02 20.1052 10.678 20.3452 10.246C20.5852 9.802 20.7052 9.292 20.7052 8.716C20.7052 8.152 20.5852 7.648 20.3452 7.204C20.1052 6.76 19.7812 6.418 19.3732 6.178C18.9652 5.926 18.4972 5.8 17.9692 5.8C17.4292 5.8 16.9552 5.926 16.5472 6.178C16.1392 6.418 15.8212 6.76 15.5932 7.204C15.3652 7.648 15.2512 8.158 15.2512 8.734C15.2512 9.298 15.3592 9.802 15.5752 10.246C15.8032 10.678 16.1212 11.02 16.5292 11.272C16.9492 11.524 17.4232 11.65 17.9512 11.65ZM28.6978 13.18C28.0498 13.18 27.4618 13.048 26.9338 12.784C26.4178 12.508 26.0038 12.13 25.6918 11.65C25.3798 11.17 25.2058 10.624 25.1698 10.012V7.438C25.2058 6.814 25.3798 6.268 25.6918 5.8C26.0158 5.32 26.4358 4.948 26.9518 4.684C27.4798 4.408 28.0618 4.27 28.6978 4.27C29.4778 4.27 30.1798 4.468 30.8038 4.864C31.4398 5.26 31.9378 5.794 32.2978 6.466C32.6578 7.138 32.8378 7.894 32.8378 8.734C32.8378 9.574 32.6578 10.33 32.2978 11.002C31.9378 11.674 31.4398 12.208 30.8038 12.604C30.1798 12.988 29.4778 13.18 28.6978 13.18ZM24.1978 16.582V4.45H25.8178V6.7L25.5118 8.77L25.8178 10.858V16.582H24.1978ZM28.4278 11.65C28.9678 11.65 29.4418 11.524 29.8498 11.272C30.2578 11.02 30.5818 10.678 30.8218 10.246C31.0618 9.802 31.1818 9.292 31.1818 8.716C31.1818 8.152 31.0618 7.648 30.8218 7.204C30.5818 6.76 30.2578 6.418 29.8498 6.178C29.4418 5.926 28.9738 5.8 28.4458 5.8C27.9058 5.8 27.4318 5.926 27.0238 6.178C26.6158 6.418 26.2978 6.76 26.0698 7.204C25.8418 7.648 25.7278 8.158 25.7278 8.734C25.7278 9.298 25.8358 9.802 26.0518 10.246C26.2798 10.678 26.5978 11.02 27.0058 11.272C27.4258 11.524 27.8998 11.65 28.4278 11.65ZM38.5803 13.18C37.7403 13.18 36.9843 12.982 36.3123 12.586C35.6403 12.19 35.1063 11.656 34.7103 10.984C34.3143 10.3 34.1163 9.538 34.1163 8.698C34.1163 7.87 34.3143 7.126 34.7103 6.466C35.1063 5.794 35.6403 5.26 36.3123 4.864C36.9843 4.468 37.7403 4.27 38.5803 4.27C39.4083 4.27 40.1583 4.468 40.8303 4.864C41.5143 5.248 42.0543 5.776 42.4503 6.448C42.8463 7.12 43.0443 7.87 43.0443 8.698C43.0443 9.538 42.8463 10.3 42.4503 10.984C42.0543 11.656 41.5143 12.19 40.8303 12.586C40.1583 12.982 39.4083 13.18 38.5803 13.18ZM38.5803 11.614C39.1203 11.614 39.6003 11.488 40.0203 11.236C40.4403 10.984 40.7703 10.642 41.0103 10.21C41.2503 9.766 41.3703 9.262 41.3703 8.698C41.3703 8.146 41.2443 7.654 40.9923 7.222C40.7523 6.79 40.4223 6.454 40.0023 6.214C39.5943 5.962 39.1203 5.836 38.5803 5.836C38.0403 5.836 37.5603 5.962 37.1403 6.214C36.7203 6.454 36.3903 6.79 36.1503 7.222C35.9103 7.654 35.7903 8.146 35.7903 8.698C35.7903 9.262 35.9103 9.766 36.1503 10.21C36.3903 10.642 36.7203 10.984 37.1403 11.236C37.5603 11.488 38.0403 11.614 38.5803 11.614ZM44.8876 13V4.45H46.5076V13H44.8876ZM45.6976 2.74C45.3976 2.74 45.1516 2.644 44.9596 2.452C44.7676 2.248 44.6716 1.996 44.6716 1.696C44.6716 1.408 44.7676 1.168 44.9596 0.975999C45.1516 0.771999 45.3976 0.669999 45.6976 0.669999C45.9976 0.669999 46.2436 0.771999 46.4356 0.975999C46.6276 1.168 46.7236 1.408 46.7236 1.696C46.7236 1.996 46.6276 2.248 46.4356 2.452C46.2436 2.644 45.9976 2.74 45.6976 2.74ZM54.943 13V8.014C54.943 7.366 54.739 6.832 54.331 6.412C53.923 5.992 53.395 5.782 52.747 5.782C52.315 5.782 51.931 5.878 51.595 6.07C51.259 6.262 50.995 6.526 50.803 6.862C50.611 7.198 50.515 7.582 50.515 8.014L49.849 7.636C49.849 6.988 49.993 6.412 50.281 5.908C50.569 5.404 50.971 5.008 51.487 4.72C52.003 4.42 52.585 4.27 53.233 4.27C53.881 4.27 54.451 4.432 54.943 4.756C55.447 5.08 55.843 5.506 56.131 6.034C56.419 6.55 56.563 7.102 56.563 7.69V13H54.943ZM48.895 13V4.45H50.515V13H48.895ZM59.9649 13V0.868H61.5849V13H59.9649ZM57.8589 5.926V4.45H63.6909V5.926H57.8589ZM65.2778 13V4.45H66.8978V13H65.2778ZM71.0558 13V7.834C71.0558 7.198 70.8578 6.7 70.4618 6.34C70.0778 5.968 69.5918 5.782 69.0038 5.782C68.6078 5.782 68.2538 5.866 67.9418 6.034C67.6298 6.202 67.3778 6.436 67.1858 6.736C66.9938 7.036 66.8978 7.396 66.8978 7.816L66.2318 7.492C66.2318 6.844 66.3698 6.28 66.6458 5.8C66.9338 5.32 67.3238 4.948 67.8158 4.684C68.3078 4.408 68.8598 4.27 69.4718 4.27C70.0718 4.27 70.6118 4.402 71.0918 4.666C71.5838 4.93 71.9678 5.302 72.2438 5.782C72.5318 6.262 72.6758 6.832 72.6758 7.492V13H71.0558ZM76.8338 13V7.834C76.8338 7.198 76.6358 6.7 76.2398 6.34C75.8558 5.968 75.3758 5.782 74.7998 5.782C74.4038 5.782 74.0438 5.866 73.7198 6.034C73.4078 6.202 73.1558 6.436 72.9638 6.736C72.7718 7.036 72.6758 7.396 72.6758 7.816L71.7578 7.492C71.7938 6.832 71.9678 6.268 72.2798 5.8C72.6038 5.32 73.0178 4.948 73.5218 4.684C74.0258 4.408 74.5778 4.27 75.1778 4.27C75.8018 4.27 76.3598 4.402 76.8518 4.666C77.3438 4.93 77.7338 5.302 78.0218 5.782C78.3218 6.262 78.4718 6.838 78.4718 7.51V13H76.8338ZM84.6363 13.18C83.7843 13.18 83.0163 12.988 82.3323 12.604C81.6483 12.208 81.1083 11.674 80.7123 11.002C80.3163 10.33 80.1183 9.568 80.1183 8.716C80.1183 7.876 80.3103 7.12 80.6943 6.448C81.0903 5.776 81.6183 5.248 82.2783 4.864C82.9503 4.468 83.7003 4.27 84.5283 4.27C85.3203 4.27 86.0163 4.45 86.6163 4.81C87.2283 5.17 87.7023 5.668 88.0383 6.304C88.3863 6.94 88.5603 7.66 88.5603 8.464C88.5603 8.584 88.5543 8.716 88.5423 8.86C88.5303 8.992 88.5063 9.148 88.4703 9.328H81.2523V7.978H87.6063L87.0123 8.5C87.0123 7.924 86.9103 7.438 86.7063 7.042C86.5023 6.634 86.2143 6.322 85.8423 6.106C85.4703 5.878 85.0203 5.764 84.4923 5.764C83.9403 5.764 83.4543 5.884 83.0343 6.124C82.6143 6.364 82.2903 6.7 82.0623 7.132C81.8343 7.564 81.7203 8.074 81.7203 8.662C81.7203 9.262 81.8403 9.79 82.0803 10.246C82.3203 10.69 82.6623 11.038 83.1063 11.29C83.5503 11.53 84.0603 11.65 84.6363 11.65C85.1163 11.65 85.5543 11.566 85.9503 11.398C86.3583 11.23 86.7063 10.978 86.9943 10.642L88.0383 11.704C87.6303 12.184 87.1263 12.55 86.5263 12.802C85.9383 13.054 85.3083 13.18 84.6363 13.18ZM96.3747 13V8.014C96.3747 7.366 96.1707 6.832 95.7627 6.412C95.3547 5.992 94.8267 5.782 94.1787 5.782C93.7467 5.782 93.3627 5.878 93.0267 6.07C92.6907 6.262 92.4267 6.526 92.2347 6.862C92.0427 7.198 91.9467 7.582 91.9467 8.014L91.2807 7.636C91.2807 6.988 91.4247 6.412 91.7127 5.908C92.0007 5.404 92.4027 5.008 92.9187 4.72C93.4347 4.42 94.0167 4.27 94.6647 4.27C95.3127 4.27 95.8827 4.432 96.3747 4.756C96.8787 5.08 97.2747 5.506 97.5627 6.034C97.8507 6.55 97.9947 7.102 97.9947 7.69V13H96.3747ZM90.3267 13V4.45H91.9467V13H90.3267ZM101.397 13V0.868H103.017V13H101.397ZM99.2905 5.926V4.45H105.123V5.926H99.2905ZM109.252 13.18C108.772 13.18 108.316 13.12 107.884 13C107.464 12.868 107.074 12.688 106.714 12.46C106.354 12.22 106.042 11.938 105.778 11.614L106.822 10.57C107.134 10.954 107.494 11.242 107.902 11.434C108.31 11.614 108.766 11.704 109.27 11.704C109.774 11.704 110.164 11.62 110.44 11.452C110.716 11.272 110.854 11.026 110.854 10.714C110.854 10.402 110.74 10.162 110.512 9.994C110.296 9.814 110.014 9.67 109.666 9.562C109.318 9.442 108.946 9.328 108.55 9.22C108.166 9.1 107.8 8.95 107.452 8.77C107.104 8.59 106.816 8.344 106.588 8.032C106.372 7.72 106.264 7.306 106.264 6.79C106.264 6.274 106.39 5.83 106.642 5.458C106.894 5.074 107.242 4.78 107.686 4.576C108.142 4.372 108.688 4.27 109.324 4.27C109.996 4.27 110.59 4.39 111.106 4.63C111.634 4.858 112.066 5.206 112.402 5.674L111.358 6.718C111.118 6.406 110.818 6.166 110.458 5.998C110.11 5.83 109.714 5.746 109.27 5.746C108.802 5.746 108.442 5.83 108.19 5.998C107.95 6.154 107.83 6.376 107.83 6.664C107.83 6.952 107.938 7.174 108.154 7.33C108.37 7.486 108.652 7.618 109 7.726C109.36 7.834 109.732 7.948 110.116 8.068C110.5 8.176 110.866 8.326 111.214 8.518C111.562 8.71 111.844 8.968 112.06 9.292C112.288 9.616 112.402 10.042 112.402 10.57C112.402 11.374 112.114 12.01 111.538 12.478C110.974 12.946 110.212 13.18 109.252 13.18Z" fill="#515151"/>
</svg>
