<svg width="126" height="126" viewBox="0 0 126 126" fill="none" xmlns="http://www.w3.org/2000/svg">
<circle cx="63.1684" cy="62.8325" r="62.8325" fill="url(#paint0_linear_1_112)"/>
<path d="M64.5774 87.6246C64.5774 86.8564 64.2953 86.1312 63.6456 85.6477C63.1923 85.3102 62.7945 84.935 62.4822 84.5145C62.3009 84.2727 62.1473 84.0234 62.0162 83.7717C61.8676 83.4795 61.7493 83.1874 61.6562 82.8978C61.5505 82.5653 61.4749 82.238 61.4194 81.9182C61.3564 81.553 61.3237 81.2005 61.3011 80.8555C61.2784 80.4651 61.2734 80.0925 61.2734 79.7349C61.2734 79.405 61.2708 79.0852 61.2708 78.793V78.5814V77.1081V76.5239C61.2708 76.5239 61.2708 68.415 61.2708 65.5896C61.2708 64.2524 60.8855 63.0159 59.702 61.8323C57.0603 59.1906 53.0034 60.213 52.7616 60.135L43.58 62.3662C45.9572 65.6047 49.2813 68.1934 53.3281 69.6743V73.0865C39.6288 76.9394 29.6816 88.7954 29.6816 105.527H42.6884H51.7066V103.575C51.7066 102.55 51.7595 101.613 51.8704 100.752C51.9787 99.8885 52.1474 99.0977 52.3842 98.3724C52.5427 97.8889 52.7342 97.4331 52.9584 97.005C53.258 96.4334 53.6258 95.9172 54.0539 95.4638C54.3006 95.2045 56.0988 93.1797 58.7026 93.1797C62.8877 93.18 64.5774 91.0294 64.5774 87.6246Z" fill="#F7DECE"/>
<path d="M71.895 72.7262V67.6745C75.7604 65.2293 79.5329 57.8257 79.5329 48.9136V43.0963C78.9638 31.4469 69.057 22.4642 57.4075 23.0334C46.1936 23.5824 37.4528 32.7866 37.3293 43.8669L32.6907 50.233C32.313 50.7341 32.1317 51.2832 32.4314 51.8599C32.7412 52.4467 33.3934 52.555 33.9222 52.6356L37.7424 53.2172L38.1025 56.8435C38.1025 56.8435 52.9098 56.899 55.2996 56.899C65.3575 56.899 64.796 59.6388 64.796 65.5895C64.796 68.4149 64.796 76.0126 64.796 76.0126V76.3576C64.796 76.685 64.791 77.0023 64.791 77.3019C64.791 77.6696 64.8213 78.0146 64.8213 78.3218C64.8213 78.9715 65.4333 79.664 65.5264 79.7773C65.5793 79.8403 65.6423 79.9008 65.7179 79.9662C65.8035 80.0368 65.9093 80.1072 66.0452 80.1802C66.1988 80.2658 66.3927 80.349 66.6344 80.427C66.9115 80.5151 67.2564 80.5932 67.6695 80.6536C67.9918 80.6965 68.3594 80.7316 68.7749 80.7467C69.5229 80.7065 70.3413 80.7543 71.1799 80.9482C76.7302 82.2224 80.6485 90.9357 75.0932 97.6972C69.5355 104.459 61.4368 102.114 58.1378 100.18C57.3395 99.7142 55.9369 98.9688 55.675 99.9938C55.5667 100.417 55.4911 100.905 55.4307 101.454C55.3652 102.082 55.3273 102.787 55.3299 103.575V105.526H81.4644H96.9391C96.9389 88.2311 86.3094 76.146 71.895 72.7262Z" fill="#F7DECE"/>
<mask id="mask0_1_112" style="mask-type:alpha" maskUnits="userSpaceOnUse" x="29" y="23" width="68" height="83">
<path d="M64.5791 87.6244C64.5791 86.8563 64.297 86.131 63.6474 85.6475C63.194 85.3101 62.7962 84.9349 62.4839 84.5144C62.3026 84.2726 62.149 84.0233 62.0179 83.7715C61.8693 83.4793 61.751 83.1873 61.6579 82.8977C61.5522 82.5652 61.4766 82.2379 61.4211 81.9181C61.3581 81.5529 61.3254 81.2004 61.3028 80.8554C61.2801 80.465 61.2751 80.0924 61.2751 79.7348C61.2751 79.4048 61.2725 79.0851 61.2725 78.7929V78.5813V77.108V76.5238C61.2725 76.5238 61.2725 68.4149 61.2725 65.5895C61.2725 64.2523 60.8872 63.0158 59.7037 61.8322C57.062 59.1904 53.0051 60.2129 52.7633 60.1349L43.5817 62.3661C45.959 65.6046 49.2831 68.1933 53.3298 69.6741V73.0864C39.6305 76.9393 29.6833 88.7953 29.6833 105.527H42.6901H51.7083V103.575C51.7083 102.55 51.7612 101.613 51.8721 100.752C51.9804 99.8884 52.1491 99.0975 52.3859 98.3723C52.5445 97.8888 52.7359 97.433 52.9601 97.0049C53.2597 96.4333 53.6275 95.917 54.0556 95.4637C54.3023 95.2043 56.1005 93.1796 58.7043 93.1796C62.8894 93.1799 64.5791 91.0293 64.5791 87.6244Z" fill="white"/>
<path d="M71.8967 72.7261V67.6744C75.7621 65.2292 79.5346 57.8256 79.5346 48.9134V43.0962C78.9655 31.4468 69.0587 22.4641 57.4093 23.0333C46.1953 23.5823 37.4545 32.7864 37.331 43.8668L32.6925 50.2329C32.3147 50.734 32.1334 51.2831 32.4331 51.8598C32.7429 52.4466 33.3951 52.5549 33.9239 52.6355L37.7441 53.2171L38.1042 56.8434C38.1042 56.8434 52.9115 56.8988 55.3013 56.8988C65.3592 56.8988 64.7977 59.6387 64.7977 65.5894C64.7977 68.4148 64.7977 76.0125 64.7977 76.0125V76.3575C64.7977 76.6849 64.7927 77.0022 64.7927 77.3018C64.7927 77.6694 64.823 78.0145 64.823 78.3217C64.823 78.9714 65.435 79.6639 65.5281 79.7772C65.581 79.8402 65.644 79.9007 65.7196 79.9661C65.8052 80.0367 65.911 80.1071 66.0469 80.1801C66.2005 80.2657 66.3944 80.3489 66.6361 80.4269C66.9132 80.515 67.2581 80.593 67.6712 80.6535C67.9935 80.6963 68.3611 80.7315 68.7766 80.7466C69.5246 80.7063 70.343 80.7542 71.1816 80.9481C76.7319 82.2223 80.6502 90.9355 75.0949 97.697C69.5372 104.459 61.4385 102.114 58.1395 100.18C57.3412 99.7141 55.9386 98.9687 55.6767 99.9937C55.5684 100.417 55.4928 100.905 55.4324 101.454C55.3669 102.081 55.329 102.787 55.3316 103.575V105.526H81.4661H96.9408C96.9407 88.231 86.3111 76.1459 71.8967 72.7261Z" fill="#F7DECE"/>
</mask>
<g mask="url(#mask0_1_112)">
<rect x="29.6833" y="72.5663" width="67.2573" height="33.6286" fill="#577CFF"/>
</g>
<defs>
<linearGradient id="paint0_linear_1_112" x1="63.1684" y1="0" x2="63.1684" y2="125.665" gradientUnits="userSpaceOnUse">
<stop stop-color="#AFC1DC"/>
<stop offset="1" stop-color="#E2E5ED"/>
</linearGradient>
</defs>
</svg>
