<svg width="22" height="22" viewBox="0 0 22 22" fill="none" xmlns="http://www.w3.org/2000/svg">
<path d="M10.6618 16.5583L16.1618 13.383L10.6618 10.2075V12.1608H5.83398V14.6052H10.6618V16.5583Z" fill="#5F6FFF"/>
<path d="M6.11089 4.88892C5.43589 4.88892 4.88867 5.43613 4.88867 6.11114C4.88867 6.78615 5.43589 7.33336 6.11089 7.33336H15.8887C16.5637 7.33336 17.1109 6.78615 17.1109 6.11114C17.1109 5.43613 16.5637 4.88892 15.8887 4.88892H6.11089Z" fill="#5F6FFF"/>
<path fill-rule="evenodd" clip-rule="evenodd" d="M3.66667 0C1.64163 0 0 1.64163 0 3.66667V18.3333C0 20.3584 1.64163 22 3.66667 22H18.3333C20.3584 22 22 20.3584 22 18.3333V3.66667C22 1.64163 20.3584 0 18.3333 0H3.66667ZM18.3333 2.44444H3.66667C2.99166 2.44444 2.44444 2.99166 2.44444 3.66667V18.3333C2.44444 19.0084 2.99166 19.5556 3.66667 19.5556H18.3333C19.0084 19.5556 19.5556 19.0084 19.5556 18.3333V3.66667C19.5556 2.99166 19.0084 2.44444 18.3333 2.44444Z" fill="#5F6FFF"/>
</svg>
